# xmcd
#
# Track frame offsets:
#	150
#	17366
#	38622
#	53379
#	84380
#	105524
#	126226
#	141157
#	168463
#	187762
#
# Disc length: 3222 seconds
#
# Revision: 1
# Processed by: cddbd v1.5.1PL2 Copyright (c) Steve Scherf et al.
# Submitted via: audiograbber 1.83.01
#
DISCID=6c0c940a
DTITLE=Electric Blueshouse Band - Endless Days And Nights
DYEAR=2005
DGENRE=Blues
TTITLE0=Endless Days And Nights
TTITLE1=Hold On I'm Coming
TTITLE2=Messed Up Again
TTITLE3=How Blue Can You Get
TTITLE4=The Thrill Is Gone
TTITLE5=Marry You
TTITLE6=True Friends
TTITLE7=Five Long Years
TTITLE8=Playing With Fire
TTITLE9=Drivin' Alll Around Town
EXTD=
EXTT0=
EXTT1=
EXTT2=
EXTT3=
EXTT4=
EXTT5=
EXTT6=
EXTT7=
EXTT8=
EXTT9=
PLAYORDER=
